<?xml version="1.0" encoding="UTF-8" standalone="no"?>
<svg
   xmlns:dc="http://purl.org/dc/elements/1.1/"
   xmlns:cc="http://creativecommons.org/ns#"
   xmlns:rdf="http://www.w3.org/1999/02/22-rdf-syntax-ns#"
   xmlns:svg="http://www.w3.org/2000/svg"
   xmlns="http://www.w3.org/2000/svg"
   xmlns:sodipodi="http://sodipodi.sourceforge.net/DTD/sodipodi-0.dtd"
   xmlns:inkscape="http://www.inkscape.org/namespaces/inkscape"
   width="10mm"
   height="10mm"
   viewBox="0 0 10 10"
   version="1.1"
   id="svg2234"
   inkscape:version="1.0 (4035a4fb49, 2020-05-01)"
   sodipodi:docname="FFBoard_OSHW_pathed.svg">
  <defs
     id="defs2228" />
  <sodipodi:namedview
     id="base"
     pagecolor="#ffffff"
     bordercolor="#666666"
     borderopacity="1.0"
     inkscape:pageopacity="0.0"
     inkscape:pageshadow="2"
     inkscape:zoom="11.2"
     inkscape:cx="-7.4731897"
     inkscape:cy="12.157985"
     inkscape:document-units="mm"
     inkscape:current-layer="layer1"
     inkscape:document-rotation="0"
     showgrid="false"
     inkscape:window-width="1920"
     inkscape:window-height="1017"
     inkscape:window-x="-8"
     inkscape:window-y="537"
     inkscape:window-maximized="1" />
  <metadata
     id="metadata2231">
    <rdf:RDF>
      <cc:Work
         rdf:about="">
        <dc:format>image/svg+xml</dc:format>
        <dc:type
           rdf:resource="http://purl.org/dc/dcmitype/StillImage" />
        <dc:title />
      </cc:Work>
    </rdf:RDF>
  </metadata>
  <g
     inkscape:label="Ebene 1"
     inkscape:groupmode="layer"
     id="layer1">
    <path
       d="M 4.4472656,0 C 4.2707276,-4.51e-4 4.1438921,0.10283887 4.1113281,0.27929688 L 3.9042969,1.3886719 3.2695312,1.6503906 2.3398438,1.0117188 C 2.1915957,0.91010072 2.031855,0.92669437 1.90625,1.0527344 L 1.0527344,1.90625 C 0.92615238,2.033271 0.91289087,2.1932587 1.0136719,2.3398438 L 1.6367188,3.2480469 1.3535156,3.9101562 0.27929688,4.109375 C 0.10595888,4.142145 0,4.2662245 0,4.4453125 v 1.2070313 c 0,0.176249 0.104246,0.3037114 0.28125,0.3359374 l 1.0371094,0.1933594 0.2871094,0.7148438 -0.59375,0.8632812 c -0.10170305,0.148567 -0.0841444,0.3079948 0.041016,0.4335938 L 1.90625,9.046875 c 0.12755,0.127106 0.2875177,0.1402706 0.4335938,0.041016 v -0.00195 L 3.171875,8.515625 l 0.3105469,0.1660156 0.00195,0.00195 c 0.159992,0.08176 0.3826819,-4.787e-4 0.4511719,-0.1660157 L 4.78125,6.4746094 C 4.84978,6.3094204 4.7970172,6.1480165 4.6445312,6.0546875 l -0.1035156,-0.0625 c 0.0057,0.0034 -0.013574,-0.010418 -0.021484,-0.017578 L 4.5019531,5.9589844 4.4824219,5.9453125 C 4.1892859,5.7576065 3.9941406,5.4320796 3.9941406,5.0566406 3.9941406,4.4702996 4.4645072,4 5.0507812,4 c 0.586274,0 1.0546875,0.4702996 1.0546876,1.0566406 0,0.37567 -0.1932412,0.7010329 -0.4863282,0.8886719 l -0.021484,0.013672 -0.015625,0.015625 c -0.0064,0.0058 -0.027377,0.019818 -0.023437,0.017578 l -0.1035157,0.0625 c -0.152251,0.09373 -0.2052667,0.2542649 -0.1367187,0.4199219 l 0.6484375,1.5644531 0.3105469,0.8085937 c 0.120357,0.2799681 0.266568,0.8032808 0.59375,0.7304688 0.24143,-0.07385 0.4766765,-0.1802416 0.7109374,-0.3066406 0.0012,-6.35e-4 0.00271,-0.00125 0.00391,-0.00195 C 9.0303965,8.3915993 10,6.8074139 10,4.9980469 10,2.2600409 7.7841024,0.03068113 5.0527344,0.00195313 Z M 5,0.94726562 c 1.809245,0 3.3347949,1.17849088 3.8574219,2.81054688 -0.860524,0.197037 -1.7979117,0.4035254 -2.4316407,0.068359 -0.342131,-0.373699 -0.8308589,-0.609287 -1.375,-0.609375 -1.0285289,1.66e-4 -1.8688076,0.8386745 -1.8691406,1.8671875 1.49e-4,0.583649 0.2952279,1.0835792 0.7167969,1.4257812 l -0.515625,1.2460938 c -0.0791,-0.02881 -0.1621561,-0.054108 -0.2207031,-0.054687 h -0.00391 -0.00195 c -0.09169,0.0015 -0.228076,0.026713 -0.34375,0.1035156 v 0.00195 L 2.203125,8.2246094 1.9042969,7.9238281 l 0.4296875,-0.625 0.00195,-0.00391 C 2.4115775,7.1789669 2.4392642,7.0448 2.4414062,6.953125 v -0.00586 -0.00586 C 2.4405412,6.8782163 2.428205,6.7897349 2.390625,6.7011719 v -0.00195 L 2.0390625,5.8222656 C 1.9979525,5.7147666 1.9275179,5.6300861 1.8730469,5.5800781 l -0.00391,-0.00195 -0.00391,-0.00391 C 1.8033544,5.5212588 1.6971366,5.4563326 1.5722656,5.4316406 L 0.8125,5.2890625 V 4.8671875 L 1.6015625,4.71875 h 0.00195 C 1.7261126,4.69414 1.8286629,4.6300311 1.8886719,4.5800781 l 0.00391,-0.00195 0.00391,-0.00391 C 1.9493744,4.5272188 2.019115,4.447927 2.0625,4.34375 l 0.00195,-0.00195 0.013672,-0.03125 0.3378906,-0.7910157 v -0.00195 c 0.0414,-0.09077 0.057924,-0.1856735 0.058594,-0.2578125 v -0.00391 -0.00391 c -0.0019,-0.08905 -0.027949,-0.2250398 -0.1035156,-0.3417969 l -0.00195,-0.00195 -0.4648437,-0.6777343 0.2988281,-0.296875 0.6933594,0.4746093 0.00195,0.00195 c 0.117044,0.07629 0.25451,0.1015237 0.34375,0.1035157 H 3.2460938 3.25 c 0.063495,-5.437e-4 0.1544362,-0.012061 0.2421875,-0.048828 l 0.00391,-0.00195 L 4.296875,2.1367188 C 4.404666,2.0942888 4.4879894,2.0213059 4.5371094,1.9667969 l 0.00391,-0.00391 0.00195,-0.00391 c 0.05186,-0.06152 0.1157499,-0.1639653 0.140625,-0.2851563 V 1.671875 L 4.8125,0.95507812 C 4.91057,0.94797813 4.900081,0.94726562 5,0.94726562 Z M 9.0390625,4.7421875 c 0.0053,0.08556 0.011719,0.1689144 0.011719,0.2558594 0,1.469902 -0.7784414,2.7497414 -1.9453124,3.4589843 L 6.3222656,6.8027344 6.2011719,6.5097656 c 0.355942,-0.288795 0.6190433,-0.6893021 0.6933593,-1.1582031 0.496956,-0.314956 1.3991153,-0.554662 2.1445313,-0.609375 z"
       inkscape:original="M 4.4472656 0 C 4.2707276 -0.000451 4.1438921 0.10283887 4.1113281 0.27929688 L 3.9042969 1.3886719 L 3.2695312 1.6503906 L 2.3398438 1.0117188 C 2.1915957 0.91010072 2.031855 0.92669437 1.90625 1.0527344 L 1.0527344 1.90625 C 0.92615238 2.033271 0.91289087 2.1932587 1.0136719 2.3398438 L 1.6367188 3.2480469 L 1.3535156 3.9101562 L 0.27929688 4.109375 C 0.10595888 4.142145 3.7007434e-17 4.2662245 0 4.4453125 L 0 5.6523438 C 0 5.8285928 0.104246 5.9560552 0.28125 5.9882812 L 1.3183594 6.1816406 L 1.6054688 6.8964844 L 1.0117188 7.7597656 C 0.91001575 7.9083326 0.92757437 8.0677604 1.0527344 8.1933594 L 1.90625 9.046875 C 2.0338 9.173981 2.1937677 9.1871456 2.3398438 9.0878906 L 2.3398438 9.0859375 L 3.171875 8.515625 L 3.4824219 8.6816406 L 3.484375 8.6835938 C 3.644367 8.7653537 3.8670569 8.6831151 3.9355469 8.5175781 L 4.78125 6.4746094 C 4.84978 6.3094204 4.7970172 6.1480165 4.6445312 6.0546875 L 4.5410156 5.9921875 C 4.5467156 5.9955875 4.5274412 5.9817694 4.5195312 5.9746094 L 4.5019531 5.9589844 L 4.4824219 5.9453125 C 4.1892859 5.7576065 3.9941406 5.4320796 3.9941406 5.0566406 C 3.9941406 4.4702996 4.4645072 4 5.0507812 4 C 5.6370552 4 6.1054687 4.4702996 6.1054688 5.0566406 C 6.1054688 5.4323106 5.9122276 5.7576735 5.6191406 5.9453125 L 5.5976562 5.9589844 L 5.5820312 5.9746094 C 5.5756312 5.9804094 5.5546538 5.9944275 5.5585938 5.9921875 L 5.4550781 6.0546875 C 5.3028271 6.1484175 5.2498114 6.3089524 5.3183594 6.4746094 L 5.9667969 8.0390625 L 6.2773438 8.8476562 C 6.3977008 9.1276243 6.5439118 9.650937 6.8710938 9.578125 C 7.1125238 9.504275 7.3477703 9.3978834 7.5820312 9.2714844 C 7.5832312 9.2708494 7.5847375 9.2702313 7.5859375 9.2695312 C 9.0303965 8.3915993 10 6.8074139 10 4.9980469 C 10 2.2600409 7.7841024 0.030681125 5.0527344 0.001953125 L 4.4472656 0 z M 5 0.94726562 C 6.809245 0.94726562 8.3347949 2.1257565 8.8574219 3.7578125 C 7.9968979 3.9548495 7.0595102 4.1613379 6.4257812 3.8261719 C 6.0836502 3.4524729 5.5949223 3.2168849 5.0507812 3.2167969 C 4.0222523 3.2169629 3.1819736 4.0554714 3.1816406 5.0839844 C 3.1817896 5.6676334 3.4768685 6.1675636 3.8984375 6.5097656 L 3.3828125 7.7558594 C 3.3037125 7.7270494 3.2206564 7.7017519 3.1621094 7.7011719 L 3.1582031 7.7011719 L 3.15625 7.7011719 C 3.06456 7.7026719 2.928174 7.7278845 2.8125 7.8046875 L 2.8125 7.8066406 L 2.203125 8.2246094 L 1.9042969 7.9238281 L 2.3339844 7.2988281 L 2.3359375 7.2949219 C 2.4115775 7.1789669 2.4392642 7.0448 2.4414062 6.953125 L 2.4414062 6.9472656 L 2.4414062 6.9414062 C 2.4405412 6.8782163 2.428205 6.7897349 2.390625 6.7011719 L 2.390625 6.6992188 L 2.0390625 5.8222656 C 1.9979525 5.7147666 1.9275179 5.6300861 1.8730469 5.5800781 L 1.8691406 5.578125 L 1.8652344 5.5742188 C 1.8033544 5.5212588 1.6971366 5.4563326 1.5722656 5.4316406 L 0.8125 5.2890625 L 0.8125 4.8671875 L 1.6015625 4.71875 L 1.6035156 4.71875 C 1.7261126 4.69414 1.8286629 4.6300311 1.8886719 4.5800781 L 1.8925781 4.578125 L 1.8964844 4.5742188 C 1.9493744 4.5272188 2.019115 4.447927 2.0625 4.34375 L 2.0644531 4.3417969 L 2.078125 4.3105469 L 2.4160156 3.5195312 L 2.4160156 3.5175781 C 2.4574156 3.4268081 2.4739394 3.3319046 2.4746094 3.2597656 L 2.4746094 3.2558594 L 2.4746094 3.2519531 C 2.4727094 3.1629031 2.4466607 3.0269133 2.3710938 2.9101562 L 2.3691406 2.9082031 L 1.9042969 2.2304688 L 2.203125 1.9335938 L 2.8964844 2.4082031 L 2.8984375 2.4101562 C 3.0154815 2.4864463 3.1529475 2.5116799 3.2421875 2.5136719 L 3.2460938 2.5136719 L 3.25 2.5136719 C 3.3134953 2.5131282 3.4044362 2.5016107 3.4921875 2.4648438 L 3.4960938 2.4628906 L 4.296875 2.1367188 C 4.404666 2.0942888 4.4879894 2.0213059 4.5371094 1.9667969 L 4.5410156 1.9628906 L 4.5429688 1.9589844 C 4.5948287 1.8974644 4.6587187 1.7950191 4.6835938 1.6738281 L 4.6835938 1.671875 L 4.8125 0.95507812 C 4.91057 0.94797813 4.900081 0.94726562 5 0.94726562 z M 9.0390625 4.7421875 C 9.0443625 4.8277475 9.0507812 4.9111019 9.0507812 4.9980469 C 9.0507812 6.4679489 8.2723398 7.7477883 7.1054688 8.4570312 L 6.3222656 6.8027344 L 6.2011719 6.5097656 C 6.5571139 6.2209706 6.8202152 5.8204635 6.8945312 5.3515625 C 7.3914872 5.0366065 8.2936465 4.7969005 9.0390625 4.7421875 z "
       inkscape:radius="0"
       sodipodi:type="inkscape:offset"
       style="color:#000000;font-style:normal;font-variant:normal;font-weight:normal;font-stretch:normal;font-size:medium;line-height:normal;font-family:sans-serif;font-variant-ligatures:normal;font-variant-position:normal;font-variant-caps:normal;font-variant-numeric:normal;font-variant-alternates:normal;font-variant-east-asian:normal;font-feature-settings:normal;font-variation-settings:normal;text-indent:0;text-align:start;text-decoration:none;text-decoration-line:none;text-decoration-style:solid;text-decoration-color:#000000;letter-spacing:normal;word-spacing:normal;text-transform:none;writing-mode:lr-tb;direction:ltr;text-orientation:mixed;dominant-baseline:auto;baseline-shift:baseline;text-anchor:start;white-space:normal;shape-padding:0;shape-margin:0;inline-size:0;clip-rule:nonzero;display:inline;overflow:visible;visibility:visible;opacity:1;isolation:auto;mix-blend-mode:normal;color-interpolation:sRGB;color-interpolation-filters:linearRGB;solid-color:#000000;solid-opacity:1;vector-effect:none;fill:#000000;fill-opacity:1;fill-rule:nonzero;stroke:none;stroke-width:0.556001;stroke-linecap:butt;stroke-linejoin:miter;stroke-miterlimit:4;stroke-dasharray:none;stroke-dashoffset:0;stroke-opacity:1;paint-order:stroke markers fill;color-rendering:auto;image-rendering:auto;shape-rendering:auto;text-rendering:auto;enable-background:accumulate;stop-color:#000000;stop-opacity:1"
       id="path970" />
  </g>
</svg>
